<svg xmlns="http://www.w3.org/2000/svg"><defs><font id="Serpentine-Light" horiz-adv-x="593"><font-face underline-position="-75" font-weight="200" descent="-200" panose-1="2 0 3 3 0 0 0 0 0 0" units-per-em="1000" unicode-range="U+000D-0394" bbox="-196 -208 974 877" x-height="470" underline-thickness="50" font-family="Serpentine" ascent="800" cap-height="640"/><glyph glyph-name=".notdef" horiz-adv-x="1000" unicode="Δ"/><glyph glyph-name=".notdef" horiz-adv-x="1000" unicode=""/><glyph glyph-name=".notdef" horiz-adv-x="1000" unicode=""/><glyph glyph-name=".notdef" horiz-adv-x="1000" unicode="◊"/><glyph glyph-name=".notdef" horiz-adv-x="1000" unicode="≠"/><glyph glyph-name=".notdef" horiz-adv-x="1000" unicode="≈"/><glyph glyph-name=".notdef" horiz-adv-x="1000" unicode="∫"/><glyph glyph-name=".notdef" horiz-adv-x="1000" unicode="∞"/><glyph glyph-name=".notdef" horiz-adv-x="1000" unicode="√"/><glyph glyph-name=".notdef" horiz-adv-x="1000" unicode="∑"/><glyph glyph-name=".notdef" horiz-adv-x="1000" unicode="∏"/><glyph glyph-name=".notdef" horiz-adv-x="1000" unicode="∂"/><glyph glyph-name=".notdef" horiz-adv-x="1000" unicode="π"/><glyph glyph-name=".notdef" horiz-adv-x="1000" unicode="Ω"/><glyph glyph-name=".null" horiz-adv-x="0"/><glyph glyph-name="uni000D" horiz-adv-x="1000"/><glyph glyph-name="exclam" horiz-adv-x="222" unicode="!" d="M162 640V293q0-58-12-169H72q-5 44-8.5 84T60 293v347h102zm0-640H60v86h102V0z"/><glyph glyph-name="quotedbl" horiz-adv-x="333" unicode="&quot;" d="M52 640h84V368H52v272zm145 0h84V368h-84v272z"/><glyph glyph-name="numbersign" horiz-adv-x="667" unicode="#" d="M292 387l-18-134h109l18 134H292zm240-190h-92L413 0h-66l28 197H266L238 0h-65l27 197h-91v56h99l19 134h-92v56h100l26 197h67l-27-197h108l27 197h67l-28-197h83v-56h-91l-18-134h83v-56z"/><glyph glyph-name="dollar" d="M321 111h101q26 0 34.5 10.5T465 163v79q0 32-8 42t-35 10H321V111zm-50 431H171q-26 0-34.5-10.5T128 490v-54q0-32 8-42t35-10h100v158zm0-248H160q-69 0-95.5 25.5T38 416v50q0 69 26.5 95.5T160 588h111v97h50v-97h223l3-57q-30 5-66 8t-59 3H321V384h112q69 0 95.5-25.5T555 262v-75q0-69-26.5-95.5T433 65H321V-38h-50V65H45l-7 57q30-5 66-8t59-3h108v183z" unicode="$"/><glyph glyph-name="percent" horiz-adv-x="870" unicode="%" d="M213 0l394 640h58L271 0h-58zm285 260q0 40 15.5 54.5T573 329h174q44 0 59.5-14.5T822 260V68q0-40-15-54T747 0H573q-43 0-59 14t-16 54v192zm76-197q0-21 20-21h132q11 0 15.5 4.5T746 63v203q0 21-20 21H594q-11 0-15.5-4.5T574 266V63zM48 571q0 40 15.5 54.5T123 640h174q44 0 59.5-14.5T372 571V379q0-40-15-54t-60-14H123q-43 0-59 14t-16 54v192zm76-197q0-21 20-21h132q11 0 15.5 4.5T296 374v203q0 21-20 21H144q-11 0-15.5-4.5T124 577V374z"/><glyph glyph-name="ampersand" horiz-adv-x="667" unicode="&amp;" d="M250 355h-52q-26 0-34.5-10.5T155 303V104q0-32 8-42t35-10h114q23 0 34 7t30 33l36 49zM53 330q0 45 18.5 61t58.5 16h84q-53 63-82 105.5T103 581q0 39 29.5 49t94.5 10h327l9-63q-30 5-66 8t-59 3H243q-26-2-26-18 0-11 29.5-51T354 377t116-155l67 91q7 10 9.5 21.5T549 365v40h48v-67q0-18-2.5-28.5T584 288l-82-107 67-88q20-27 31-37t25-10q10 0 18 2t17 5l-5-53h-95q-27 0-38.5 5T494 32l-51 68-55-82Q376 0 316 0H160q-56 0-81.5 31T53 122v208z"/><glyph glyph-name="quotesingle" horiz-adv-x="222" unicode="'" d="M69 640h84V369H69v271z"/><glyph glyph-name="parenleft" horiz-adv-x="315" unicode="(" d="M84 518q0 69 26.5 95.5T206 640h79v-52h-74q-26 0-34.5-10.5T168 536V0q0-32 8-42t35-10h72v-52h-77q-69 0-95.5 25.5T84 18v500z"/><glyph glyph-name="parenright" horiz-adv-x="315" unicode=")" d="M231 18q0-69-26.5-95.5T109-104H30v52h74q26 0 34.5 10.5T147 0v536q0 32-8 42t-35 10H32v52h77q69 0 95.5-25.5T231 518V18z"/><glyph glyph-name="asterisk" horiz-adv-x="611" unicode="*" d="M442 360l-120 88 17-155h-62l15 155-117-96-33 56 136 62-139 59 33 52 117-88-12 147h57l-12-148 120 87 29-50-133-59 135-59z"/><glyph glyph-name="plus" horiz-adv-x="600" unicode="+" d="M262 470h76V273h197v-76H338V0h-76v197H65v76h197v197z"/><glyph glyph-name="comma" horiz-adv-x="333" unicode="," d="M217 5l-53-55h-44l33 50h-38v86h102V5z"/><glyph glyph-name="hyphen" horiz-adv-x="333" unicode="-" d="M296 270v-70H37v70h259z"/><glyph glyph-name="period" horiz-adv-x="333" unicode="." d="M217 0H115v86h102V0z"/><glyph glyph-name="slash" horiz-adv-x="278" unicode="/" d="M-50 0l301 640h77L27 0h-77z"/><glyph glyph-name="zero" horiz-adv-x="667" unicode="0" d="M523 536q0 32-8 42t-35 10H187q-26 0-34.5-10.5T144 536V104q0-32 8-42t35-10h293q26 0 34.5 10.5T523 104v432zM42 518q0 69 26.5 95.5T164 640h339q69 0 95.5-25.5T625 518V122q0-69-26.5-95.5T503 0H164Q95 0 68.5 25.5T42 122v396z"/><glyph glyph-name="one" horiz-adv-x="315" unicode="1" d="M218 640V140q0-33 3.5-68.5T234 0H100q9 36 12.5 71.5T116 140v396H49v46l120 58h49z"/><glyph glyph-name="two" horiz-adv-x="648" unicode="2" d="M48 0v262q0 35 21 50.5t68 28.5l360 96q19 5 19 45v54q0 32-8 42t-35 10H175q-53 0-78-1.5T50 581l8 59h438q69 0 95.5-25.5T618 518v-48q0-62-12-83.5T547 352l-360-99q-21-6-29-13t-8-22V52h341q53 0 78 1.5t47 5.5l-8-59H48z"/><glyph glyph-name="three" horiz-adv-x="611" unicode="3" d="M15 59q7-1 39-4t86-3h288q26 0 34.5 10.5T471 104v146q0 32-8 42t-35 10H294q-53 0-78-1.5t-47-5.5v66q7-1 39-4t86-3h134q26 0 34.5 10.5T471 406v130q0 32-8 42t-35 10H142q-53 0-78-1.5T17 581l8 59h426q69 0 95.5-25.5T573 518V412q0-47-16.5-60T490 331q58-7 70.5-28t12.5-85v-96q0-69-26.5-95.5T451 0H23z"/><glyph glyph-name="four" horiz-adv-x="667" unicode="4" d="M463 588L66 272l397-2v318zM-4 280l454 360h109V270h94v-74h-94v-88q0-32 3-57t12-51H448q15 46 15 108v88H-4v84z"/><glyph glyph-name="five" horiz-adv-x="648" unicode="5" d="M596 640l8-59q-7 1-39 4t-86 3H137V396h348q69 0 95.5-25.5T607 274V122q0-69-26.5-95.5T485 0H39l-8 59q7-1 39-4t86-3h306q26 0 34.5 10.5T505 104v188q0 32-8 42t-35 10H166q-53 0-78-1.5T41 337v303h555z"/><glyph glyph-name="six" horiz-adv-x="667" unicode="6" d="M189 588q-26 0-34.5-10.5T146 536V365q11 21 20 28.5t29 7.5h305q69 0 95.5-25.5T622 279V122q0-72-20.5-97T518 0H166Q97 0 70.5 25.5T44 122v432q0 53 22 69.5t74 16.5h473l8-59q-7 1-39 4t-86 3H189zm331-291q0 32-8 42t-35 10H189q-26 0-34.5-10.5T146 297V104q0-32 8-42t35-10h288q26 0 34.5 10.5T520 104v193z"/><glyph glyph-name="seven" d="M582 640l6-49q-55-48-133.5-139.5t-149-210T207 0H97q18 70 64 164.5T286.5 367 486 588H140q-53 0-78-1.5T15 581l8 59h559z" unicode="7"/><glyph glyph-name="eight" horiz-adv-x="667" unicode="8" d="M189 318q-26 0-34.5-10.5T146 266V104q0-32 8-42t35-10h288q26 0 34.5 10.5T520 104v162q0 32-8 42t-35 10H189zM166 0Q97 0 70.5 25.5T44 122v140q0 44 15 63t67 19v3q-54 8-68 24t-14 57v90q0 69 26.5 95.5T166 640h334q69 0 95.5-25.5T622 518v-90q0-55-13.5-68.5T547 346q42-6 58.5-21.5T622 276V122q0-69-26.5-95.5T500 0H166zm354 536q0 32-8 42t-35 10H189q-26 0-34.5-10.5T146 536V422q0-32 8-42t35-10h288q26 0 34.5 10.5T520 421v115z"/><glyph glyph-name="nine" horiz-adv-x="667" unicode="9" d="M481 52q26 0 34.5 10.5T524 104v176q-11-24-22-32.5t-27-8.5H163q-69 0-95.5 25.5T41 361v157q0 72 20.5 97t83.5 25h359q69 0 95.5-25.5T626 518V86q0-53-22-69.5T530 0H50l-8 59q7-1 39-4t86-3h314zM143 343q0-32 8-42t35-10h295q26 0 34.5 10.5T524 343v193q0 32-8 42t-35 10H186q-26 0-34.5-10.5T143 536V343z"/><glyph glyph-name="colon" horiz-adv-x="333" unicode=":" d="M217 0H115v86h102V0zm0 206H115v86h102v-86z"/><glyph glyph-name="semicolon" horiz-adv-x="333" unicode=";" d="M115 206v86h102v-86H115zM217 5l-53-55h-44l33 50h-38v86h102V5z"/><glyph glyph-name="less" horiz-adv-x="600" unicode="&lt;" d="M535-7L65 202v66l470 209v-76L161 235 535 69V-7z"/><glyph glyph-name="equal" horiz-adv-x="600" unicode="=" d="M535 100H65v76h470v-76zm0 194H65v76h470v-76z"/><glyph glyph-name="greater" horiz-adv-x="600" unicode="&gt;" d="M438 235L65 401v76l470-209v-66L65-7v76z"/><glyph glyph-name="question" d="M297 0H195v86h102V0zm141 640q69 0 95.5-25.5T560 518V407q0-52-20.5-72.5T480 314H340q-26 0-34.5-10.5T297 262V125H195v178q0 31 17 44t60 13h143q26 0 34.5 10.5T458 412v130q0 32-8 42t-35 10H134q-37 0-66-3t-59-8l5 57h424z" unicode="?"/><glyph glyph-name="at" horiz-adv-x="800" unicode="@" d="M529 485h62l-64-232q-2-6-5-20.5t-3-21.5q0-20 17-20 43 0 79.5 53.5T652 366q0 99-68.5 158.5T415 584q-111 0-182.5-76.5T161 317q0-113 75-187t187-74q57 0 110 24t89 65h62Q641 77 571.5 38.5T419 0Q282 0 187.5 92.5T93 321q0 133 95 226t227 93q120 0 207.5-74.5T710 377q0-109-71-178t-136-69q-23 0-37.5 13T451 181q-21-21-48-36t-53-15q-55 0-92.5 40.5T220 270q0 88 55 158.5T414 499q33 0 58-15.5t41-48.5zm-42-132q0 33-20.5 56.5T418 433q-51 0-86.5-50T296 277q0-36 19.5-58.5T366 196q50 0 85.5 51.5T487 353z"/><glyph glyph-name="A" horiz-adv-x="685" unicode="A" d="M316 552L170 248h295zM568 0q-2 25-9.5 45.5T533 104l-44 92H147L95 88Q77 50 72 33.5T67 0h-84Q8 29 28 69l255 531q-7 13-13 20t-20 20h129l257-525q20-42 35-69t31-46H568z"/><glyph glyph-name="B" horiz-adv-x="667" unicode="B" d="M155 356h325q26 0 34.5 10.5T523 408v128q0 32-8 42t-35 10H155V356zm0-304h325q26 0 34.5 10.5T523 104v154q0 32-8 42t-35 10H155V52zM53 540q0 36-2 57.5T43 640h441q80 0 110.5-25.5T625 516V412q0-49-20-67t-67-18q48-2 67.5-19.5T625 240V124q0-73-30.5-98.5T484 0H43q6 20 8 42t2 58v440z"/><glyph glyph-name="C" horiz-adv-x="556" unicode="C" d="M527 640l6-64q-22 8-58 10t-98 2H187q-26 0-34.5-10.5T144 536V104q0-32 8-42t35-10h218q91 0 137 12l-6-64H183Q103 0 72.5 25.5T42 124v392q0 73 30.5 98.5T183 640h344z"/><glyph glyph-name="D" horiz-adv-x="667" unicode="D" d="M53 540q0 64-9 100h440q80 0 110.5-25.5T625 516V124q0-73-30.5-98.5T484 0H44q9 36 9 100v440zM155 52h325q26 0 34.5 10.5T523 104v432q0 32-8 42t-35 10H155V52z"/><glyph glyph-name="E" horiz-adv-x="556" unicode="E" d="M536 640l5-59q-7 1-39 4t-86 3H155V346h237q53 0 76 1.5t55 5.5v-66q-7 1-43 4t-88 3H155V52h261q53 0 78 1.5t47 5.5l-5-59H44q9 36 9 100v440q0 64-9 100h492z"/><glyph glyph-name="F" horiz-adv-x="537" unicode="F" d="M546 640l8-59q-7 1-39 4t-86 3H155V346h229q53 0 76 1.5t55 5.5v-66q-7 1-43 4t-88 3H155V100q0-64 9-100H44q9 36 9 100v440q0 64-9 100h502z"/><glyph glyph-name="G" horiz-adv-x="667" unicode="G" d="M144 104q0-32 8-42t35-10h285q26 0 34.5 10.5T515 104v226H350q-37 0-81-.5T200 318v64h424q-4-42-5.5-65t-1.5-35V100q0-61 7-100h-91l-10 42q-6-27-19-34.5T444 0H175Q96 0 69 23t-27 89v416q0 65 26.5 88.5T175 640h420l5-60q-22 8-55.5 11t-74.5 3H187q-26 0-34.5-10.5T144 542V104z"/><glyph glyph-name="H" horiz-adv-x="685" unicode="H" d="M155 300V100q0-64 9-100H44q9 36 9 100v440q0 64-9 100h120q-9-36-9-100V352h375v188q0 64-9 100h120q-9-36-9-100V100q0-64 9-100H521q9 36 9 100v200H155z"/><glyph glyph-name="I" horiz-adv-x="241" unicode="I" d="M172 100q0-64 9-100H61q9 36 9 100v440q0 64-9 100h120q-9-36-9-100V100z"/><glyph glyph-name="J" horiz-adv-x="574" unicode="J" d="M374 52q27 0 35.5 13t8.5 61v414q0 64-9 100h120q-9-36-9-100V139q0-87-30-113.5T356-1L12 0 2 67q37-11 62-13t96-2h214z"/><glyph glyph-name="K" horiz-adv-x="630" unicode="K" d="M619 640l-84-72-167-157L652 0H524L296 343 155 205V100q0-64 9-100H44q9 36 9 100v440q0 64-9 100h120q-9-36-9-100V275l311 297q13 13 29 30.5t28 37.5h96z"/><glyph glyph-name="L" horiz-adv-x="574" unicode="L" d="M51 0q9 36 9 100v440q0 64-9 100h120q-9-36-9-100V52h285q53 0 78 1.5t47 5.5l-6-59H51z"/><glyph glyph-name="M" horiz-adv-x="870" unicode="M" d="M42 0q7 23 9.5 67T54 178v312q0 103-10 150h142L440 72l250 568h139q-6-31-8.5-60.5T818 519V100q0-64 9-100H707q9 36 9 100v470L462 0h-98L108 570l-2-478q0-29 1.5-49T114 0H42z"/><glyph glyph-name="N" horiz-adv-x="685" unicode="N" d="M503 0L107 568l-2-460q0-33 1.5-51.5T114 0H41q7 23 9.5 67T53 178v312q0 103-10 150h131L577 66l3 466q0 33-1.5 51.5T571 640h72q-6-31-8.5-60.5T632 519V0H503z"/><glyph glyph-name="O" horiz-adv-x="667" unicode="O" d="M523 536q0 32-8 42t-35 10H187q-26 0-34.5-10.5T144 536V104q0-32 8-42t35-10h293q26 0 34.5 10.5T523 104v432zm-31 104q73 0 103-31.5t30-90.5V122q0-59-30-90.5T492 0H175Q102 0 72 31.5T42 122v396q0 59 30 90.5T175 640h317z"/><glyph glyph-name="P" horiz-adv-x="648" unicode="P" d="M488 292q26 0 34.5 10.5T531 344v192q0 32-8 42t-35 10H155V292h333zm145 72q0-73-30.5-98.5T492 240H155V100q0-64 9-100H44q9 36 9 100v440q0 64-9 100h448q80 0 110.5-25.5T633 516V364z"/><glyph glyph-name="Q" horiz-adv-x="667" unicode="Q" d="M349 52l-56 92h63l53-92h71q26 0 34.5 10.5T523 104v432q0 32-8 42t-35 10H187q-26 0-34.5-10.5T144 536V104q0-32 8-42t35-10h162zM175 0Q102 0 72 31.5T42 122v396q0 59 30 90.5T175 640h317q73 0 103-31.5t30-90.5V122q0-59-30-90.5T492 0h-52l45-78h-61L380 0H175z"/><glyph glyph-name="R" horiz-adv-x="667" unicode="R" d="M155 344h328q26 0 34.5 10.5T526 396v140q0 32-8 42t-35 10H155V344zm0-52V100q0-64 9-100H44q9 36 9 100v440q0 64-9 100h443q80 0 110.5-25.5T628 516V415q0-72-27-98t-92-26q53-121 83.5-184.5T655 0H537L401 292H155z"/><glyph glyph-name="S" horiz-adv-x="630" unicode="S" d="M568 640l8-59q-7 1-39 4t-86 3H185q-26 0-34.5-10.5T142 536V429q0-32 8-42t35-10h264q80 0 110.5-25.5T590 253V124q0-73-30.5-98.5T449 0H53l-8 59q7-1 39-4t86-3h275q26 0 34.5 10.5T488 104v125q0 32-8 42t-35 10H181q-80 0-110.5 25.5T40 405v111q0 73 30.5 98.5T181 640h387z"/><glyph glyph-name="T" horiz-adv-x="537" unicode="T" d="M120 588q-34 0-64.5-2.5T1 578l10 62h516l10-62q-21 4-51.5 7t-67.5 3h-98V100q0-64 9-100H209q9 36 9 100v488h-98z"/><glyph glyph-name="U" horiz-adv-x="667" unicode="U" d="M518 52q27 0 35.5 10.5T562 104v428q0 33-1.5 51.5T553 640h72q-6-31-8.5-60.5T614 519V123q0-72-23-97.5T504 0H184Q109 0 81 26t-28 97v417q0 64-9 100h120q-9-36-9-100V104q0-33 7-42.5t32-9.5h324z"/><glyph glyph-name="V" horiz-adv-x="611" unicode="V" d="M247 0L55 498q-18 47-30 75t-35 67h135q0-18 3-33t10-33L336 52l191 510q16 42 16 78h78q-12-21-22.5-39.5T583 567L371 0H247z"/><glyph glyph-name="W" horiz-adv-x="889" unicode="W" d="M175 0L38 507q-10 37-17.5 59.5T-6 640h129q-2-16-3-23.5t-1-14.5q0-13 4-33t9-39L256 56l148 584h125L683 56l122 488q5 21 7 44.5t2 51.5h81q-14-21-24-51t-19-66L721 0H602L444 588 296 0H175z"/><glyph glyph-name="X" d="M608 640q-26-24-45-43t-38-42L346 344l172-233q24-32 49-64t41-47H462q-6 13-17 33.5T418 76L281 267 150 114q-26-30-44-57.5T74 0h-89l69 75 196 235L66 565 7 640h141q12-38 40-76l128-176 152 180q19 22 27.5 35.5T513 640h95z" unicode="X"/><glyph glyph-name="Y" d="M502 593q6 10 12 25t8 22h88q-24-24-40-45t-46-65L348 266V100q0-64 9-100H237q9 36 9 100v165L105 468q-5 7-59 84t-63 88h145q7-30 14.5-46.5T177 538l148-214z" unicode="Y"/><glyph glyph-name="Z" d="M171 52h277q53 0 78 1.5t47 5.5l-8-59H17l423 588H180q-53 0-78-1.5T55 581l8 59h532z" unicode="Z"/><glyph glyph-name="bracketleft" horiz-adv-x="296" unicode="[" d="M169-58h87v-46H85v744h171v-46h-87V-58z"/><glyph glyph-name="backslash" horiz-adv-x="278" unicode="\" d="M328 0h-77L-50 640h77z"/><glyph glyph-name="bracketright" horiz-adv-x="296" unicode="]" d="M127 594H40v46h171v-744H40v46h87v652z"/><glyph glyph-name="asciicircum" horiz-adv-x="600" unicode="^" d="M90 283l176 357h66l178-357h-73L299 566 162 283H90z"/><glyph glyph-name="underscore" horiz-adv-x="500" unicode="_" d="M0-125v50h500v-50H0z"/><glyph glyph-name="grave" horiz-adv-x="204" unicode="`" d="M-24 660h76l112-140h-52z"/><glyph glyph-name="a" d="M465 270H160q-26 0-34.5-10.5T117 218V98q0-32 8-42t35-10h262q26 0 34.5 10.5T465 98v172zm84-170q0-64 9-100h-81l-8 30Q458 9 448.5 4.5T405 0H155Q86 0 59.5 25.5T33 122v72q0 69 26.5 95.5T155 316h267q26 0 34.5 10.5T465 368v6q0 31-8 40.5t-35 9.5H142q-64 0-100-9l7 55h378q69 0 95.5-25.5T549 348V100z" unicode="a"/><glyph glyph-name="b" d="M128 98q0-32 8-42t35-10h262q26 0 34.5 10.5T476 98v274q0 32-8 42t-35 10H171q-26 0-34.5-10.5T128 372V98zm0 542V438q9 18 25.5 25t41.5 7h243q69 0 95.5-25.5T560 348V122q0-69-26.5-95.5T438 0H190q-32 0-47.5 8.5T125 41l-7-41H34q6 20 8 42t2 58v440q0 64-9 100h93z" unicode="b"/><glyph glyph-name="c" horiz-adv-x="537" unicode="c" d="M128 98q0-32 8-42t35-10h253q64 0 100 9l-7-55H166Q97 0 70.5 25.5T44 122v226q0 69 26.5 95.5T166 470h344l4-55q-36 9-100 9H171q-26 0-34.5-10.5T128 372V98z"/><glyph glyph-name="d" d="M549 640V100q0-64 9-100h-82l-6 41q-7-41-67-41H155Q86 0 59.5 25.5T33 122v226q0 69 26.5 95.5T155 470h243q30 0 40.5-4t16-13 10.5-33l2 120q0 64-9 100h91zm-84-268q0 32-8 42t-35 10H160q-26 0-34.5-10.5T117 372V98q0-32 8-42t35-10h262q26 0 34.5 10.5T465 98v274z" unicode="d"/><glyph glyph-name="e" d="M117 206V98q0-32 8-42t35-10h300q64 0 100 9L550 0H155Q86 0 59.5 25.5T33 122v226q0 69 26.5 95.5T155 470h283q69 0 95.5-25.5T560 348V206H117zm359 46v120q0 32-8 42t-35 10H160q-26 0-34.5-10.5T117 372V252h359z" unicode="e"/><glyph glyph-name="f" horiz-adv-x="407" unicode="f" d="M419 424H181V100q0-64 9-100H88q9 36 9 100v324H21v46h76v48q0 69 26.5 95.5T219 640h215l8-55q-36 9-100 9H224q-26 0-34.5-10.5T181 542v-72h238v-46z"/><glyph glyph-name="g" d="M465 372q0 32-8 42t-35 10H160q-26 0-34.5-10.5T117 372V98q0-32 8-42t35-10h262q26 0 34.5 10.5T465 98v274zm84-428q0-69-26.5-95.5T427-178H55l-7 55q36-9 100-9h274q26 0 34.5 10.5T465-80V30q-12-18-22-24t-39-6H155Q86 0 59.5 25.5T33 122v226q0 69 26.5 95.5T155 470h241q31 0 47-8.5t20-32.5l8 41h87q-9-36-9-100V-56z" unicode="g"/><glyph glyph-name="h" horiz-adv-x="611" unicode="h" d="M44 540q0 64-9 100h93V438q11 20 22 26t36 6h259q69 0 95.5-25.5T567 348V100q0-64 9-100H474q9 36 9 100v272q0 32-8 42t-35 10H171q-26 0-34.5-10.5T128 372V100q0-64 9-100H35q9 36 9 100v440z"/><glyph glyph-name="i" horiz-adv-x="204" unicode="i" d="M60 596h84v-68H60v68zm84-496q0-64 9-100H51q9 36 9 100v270q0 64-9 100h93V100z"/><glyph glyph-name="j" horiz-adv-x="204" unicode="j" d="M64 596h84v-68H64v68zm84-652q0-69-26.5-95.5T26-178h-215l-7 57q30-5 66-8t59-3h92q26 0 34.5 10.5T64-80v450q0 64-9 100h93V-56z"/><glyph glyph-name="k" horiz-adv-x="556" unicode="k" d="M539 470L298 308l176-199q39-44 54.5-61.5T580 0H462L230 260l-102-70v-90q0-64 9-100H35q9 36 9 100v440q0 64-9 100h93V247l246 172q20 15 34.5 26.5T434 470h105z"/><glyph glyph-name="l" horiz-adv-x="204" unicode="l" d="M144 640V100q0-64 9-100H51q9 36 9 100v440q0 64-9 100h93z"/><glyph glyph-name="m" horiz-adv-x="963" unicode="m" d="M128 470v-34q8 12 16 25 11 9 29 9h266q45 0 59-9.5t22-36.5q11 29 23 37.5t52 8.5h165q89 0 124.5-29T920 328V100q0-64 9-100H827q9 36 9 100v272q0 32-8 42t-35 10H567q-26 0-34.5-10.5T524 372V100q0-64 9-100H431q9 36 9 100v272q0 32-8 42t-35 10H171q-26 0-34.5-10.5T128 372V100q0-64 9-100H35q9 36 9 100v270q0 64-9 100h93z"/><glyph glyph-name="n" horiz-adv-x="611" unicode="n" d="M44 370q0 64-9 100h97v-34q16 19 27.5 26.5T186 470h259q69 0 95.5-25.5T567 348V100q0-64 9-100H474q9 36 9 100v272q0 32-8 42t-35 10H171q-26 0-34.5-10.5T128 372V100q0-64 9-100H35q9 36 9 100v270z"/><glyph glyph-name="o" d="M160 424q-26 0-34.5-10.5T117 372V98q0-32 8-42t35-10h273q26 0 34.5 10.5T476 98v274q0 32-8 42t-35 10H160zm400-302q0-69-26.5-95.5T438 0H155Q86 0 59.5 25.5T33 122v226q0 69 26.5 95.5T155 470h283q69 0 95.5-25.5T560 348V122z" unicode="o"/><glyph glyph-name="p" d="M44 370q0 64-9 100h83l5-41q7 41 67 41h245q71 0 98-26t27-96V122q0-70-26-96T441 0H195q-26 0-43 7.5T130 32l-2-110q0-64 9-100H35q9 36 9 100v448zm84-272q0-32 8-42t35-10h262q26 0 34.5 10.5T476 98v274q0 32-8 42t-35 10H171q-26 0-34.5-10.5T128 372V98z" unicode="p"/><glyph glyph-name="q" d="M465 372q0 32-8 42t-35 10H160q-26 0-34.5-10.5T117 372V98q0-32 8-42t35-10h262q26 0 34.5 10.5T465 98v274zm84-450q0-64 9-100H456q9 36 9 100V22Q453 8 440.5 4T393 0H155Q86 0 59.5 25.5T33 122v226q0 69 26.5 95.5T155 470h243q31 0 47-8.5t20-32.5l13 41h80q-9-36-9-100V-78z" unicode="q"/><glyph glyph-name="r" horiz-adv-x="370" unicode="r" d="M371 470l-5-71q-30 5-66 8t-59 3h-70q-26 0-34.5-10.5T128 358V100q0-64 9-100H35q9 36 9 100v270q0 64-9 100h84l4-44q10 21 22 32.5t41 11.5h185z"/><glyph glyph-name="s" horiz-adv-x="556" unicode="s" d="M403 288q69 0 95.5-25.5T525 166V80q0-40-26-60T412 0H38l-7 55q36-9 100-9h275q26 0 34.5 10.5T449 98v56q0 32-8 42t-35 10H152q-69 0-95.5 25.5T30 328v20q0 69 26.5 95.5T152 470h364l9-55q-36 9-100 9H157q-26 0-34.5-10.5T114 372v-32q0-32 8-42t35-10h246z"/><glyph glyph-name="t" horiz-adv-x="444" unicode="t" d="M178 424V98q0-32 8-42t35-10h115q64 0 100 9l-7-55H216q-69 0-95.5 25.5T94 122v302H21v46h73v93l84 16V470h234v-46H178z"/><glyph glyph-name="u" horiz-adv-x="611" unicode="u" d="M44 370q0 64-9 100h93V98q0-32 8-42t35-10h269q26 0 34.5 10.5T483 98v272q0 64-9 100h93V100q0-64 9-100h-84l-5 34q-9-19-20.5-26.5T433 0H166Q97 0 70.5 25.5T44 122v248z"/><glyph glyph-name="v" horiz-adv-x="574" unicode="v" d="M85 470q4-21 10-38.5t12-31.5L290 40l182 340q27 51 32 90h92l-11-12q-21-21-33-38.5T528 380L328 0H220L9 416q-6 12-12 23t-19 31H85z"/><glyph glyph-name="w" horiz-adv-x="759" unicode="w" d="M101 470q0-34 1.5-42t17.5-60L220 60l126 410h107L584 60l100 336q9 27 13 74h70q-9-13-18-32.5T731 388L615 0h-93L385 434 253 0h-97L27 391q-10 32-15.5 45T-8 470h109z"/><glyph glyph-name="x" horiz-adv-x="519" unicode="x" d="M522 470l-88-86-128-134 119-140q29-34 49-56t55-54H398q-7 18-15 31.5T365 56L249 190 128 61q-19-20-28-32.5T84 0h-94q40 34 59.5 52.5T100 105l117 124L64 407q-10 12-31.5 33.5T5 470h121q7-14 27.5-40t36.5-45l84-97 125 131q8 9 19.5 21.5T437 470h85z"/><glyph glyph-name="y" horiz-adv-x="611" unicode="y" d="M566-56q0-69-26.5-95.5T444-178H57l-8 55q36-9 100-9h290q26 0 34.5 10.5T482-80v95Q468 0 439 0H166Q97 0 70.5 25.5T44 122v248q0 64-9 100h93V98q0-32 8-42t35-10h268q26 0 34.5 10.5T482 98v272q0 64-9 100h93V-56z"/><glyph glyph-name="z" horiz-adv-x="556" unicode="z" d="M160 46h280q64 0 101 9l-5-55H15l380 424H128q-64 0-100-9l7 55h503z"/><glyph glyph-name="braceleft" horiz-adv-x="315" unicode="{" d="M179 375q0-37-24.5-68.5T92 270q42-11 64.5-39.5T179 162V0q0-32 8-42t35-10h55v-52h-60q-69 0-95.5 25.5T95 18v130q0 43-24.5 69.5T12 244v52q33 0 58 26t25 66v130q0 69 26.5 95.5T217 640h60v-52h-55q-26 0-34.5-10.5T179 536V375z"/><glyph glyph-name="bar" horiz-adv-x="222" unicode="|" d="M73 640h76V0H73v640z"/><glyph glyph-name="braceright" horiz-adv-x="315" unicode="}" d="M136 161q0 37 24.5 68.5T223 266q-42 11-64.5 39.5T136 374v162q0 32-8 42t-35 10H38v52h60q69 0 95.5-25.5T220 518V388q0-43 24.5-69.5T303 292v-52q-33 0-58-26t-25-66V18q0-69-26.5-95.5T98-104H38v52h55q26 0 34.5 10.5T136 0v161z"/><glyph glyph-name="asciitilde" horiz-adv-x="600" unicode="~" d="M514 248q-36-50-60-65t-56-15q-19 0-34.5 5T306 198t-61 27-48 7q-28 0-46.5-18.5T119 164l-33 58q19 37 45.5 58.5T201 302q24 0 49.5-8.5T304 272t54.5-23 40.5-10q29 0 47 20.5t35 46.5z"/><glyph glyph-name="Adieresis" horiz-adv-x="685" unicode="Ä" d="M316 552L170 248h295zM568 0q-2 25-9.5 45.5T533 104l-44 92H147L95 88Q77 50 72 33.5T67 0h-84Q8 29 28 69l255 531q-7 13-13 20t-20 20h129l257-525q20-42 35-69t31-46H568zM378 769h64v-92h-64v92zm-146 0h64v-92h-64v92z"/><glyph glyph-name="Aring" horiz-adv-x="685" unicode="Å" d="M337 877q43 0 73.5-30.5T441 773t-30.5-73.5T337 669t-73.5 30.5T233 773t30.5 73.5T337 877zm0-46q-25 0-41.5-16.5T279 773t16.5-41.5T337 715t41.5 16.5T395 773t-16.5 41.5T337 831zm-21-279L170 248h295zM568 0q-2 25-9.5 45.5T533 104l-44 92H147L95 88Q77 50 72 33.5T67 0h-84Q8 29 28 69l255 531q-7 13-13 20t-20 20h129l257-525q20-42 35-69t31-46H568z"/><glyph glyph-name="Ccedilla" horiz-adv-x="556" unicode="Ç" d="M527 640l6-64q-22 8-58 10t-98 2H187q-26 0-34.5-10.5T144 536V104q0-32 8-42t35-10h218q91 0 137 12l-6-64H183Q103 0 72.5 25.5T42 124v392q0 73 30.5 98.5T183 640h344zM352 0l-47-59q30 6 37 6 27 0 52.5-17.5T420-123q0-39-30.5-62T315-208q-35 0-52 4t-46 16l16 30q16-6 32-11t31-5q30 0 49 13t19 34q0 40-52 40-10 0-17-1t-27-7l-15 13 61 82h38z"/><glyph glyph-name="Eacute" horiz-adv-x="556" unicode="É" d="M536 640l5-59q-7 1-39 4t-86 3H155V346h237q53 0 76 1.5t55 5.5v-66q-7 1-43 4t-88 3H155V52h261q53 0 78 1.5t47 5.5l-5-59H44q9 36 9 100v440q0 64-9 100h492zm-253 27h-50l110 140h78z"/><glyph glyph-name="Ntilde" horiz-adv-x="685" unicode="Ñ" d="M503 0L107 568l-2-460q0-33 1.5-51.5T114 0H41q7 23 9.5 67T53 178v312q0 103-10 150h131L577 66l3 466q0 33-1.5 51.5T571 640h72q-6-31-8.5-60.5T632 519V0H503zM204 679l1 9q4 39 30 64t56 25q22 0 40-7t35.5-15.5 35-16T432 731q22 0 31 13t15 37h38q-4-41-25-68.5T434 685q-16 0-36 6.5T354 708t-39 15.5-26 5.5q-21 0-29.5-11T241 679h-37z"/><glyph glyph-name="Odieresis" horiz-adv-x="667" unicode="Ö" d="M523 536q0 32-8 42t-35 10H187q-26 0-34.5-10.5T144 536V104q0-32 8-42t35-10h293q26 0 34.5 10.5T523 104v432zm-31 104q73 0 103-31.5t30-90.5V122q0-59-30-90.5T492 0H175Q102 0 72 31.5T42 122v396q0 59 30 90.5T175 640h317zM375 769h64v-92h-64v92zm-146 0h64v-92h-64v92z"/><glyph glyph-name="Udieresis" horiz-adv-x="667" unicode="Ü" d="M518 52q27 0 35.5 10.5T562 104v428q0 33-1.5 51.5T553 640h72q-6-31-8.5-60.5T614 519V123q0-72-23-97.5T504 0H184Q109 0 81 26t-28 97v417q0 64-9 100h120q-9-36-9-100V104q0-33 7-42.5t32-9.5h324zM375 769h64v-92h-64v92zm-146 0h64v-92h-64v92z"/><glyph glyph-name="aacute" d="M465 270H160q-26 0-34.5-10.5T117 218V98q0-32 8-42t35-10h262q26 0 34.5 10.5T465 98v172zm84-170q0-64 9-100h-81l-8 30Q458 9 448.5 4.5T405 0H155Q86 0 59.5 25.5T33 122v72q0 69 26.5 95.5T155 316h267q26 0 34.5 10.5T465 368v6q0 31-8 40.5t-35 9.5H142q-64 0-100-9l7 55h378q69 0 95.5-25.5T549 348V100zM285 520h-50l110 140h78z" unicode="á"/><glyph glyph-name="agrave" d="M465 270H160q-26 0-34.5-10.5T117 218V98q0-32 8-42t35-10h262q26 0 34.5 10.5T465 98v172zm84-170q0-64 9-100h-81l-8 30Q458 9 448.5 4.5T405 0H155Q86 0 59.5 25.5T33 122v72q0 69 26.5 95.5T155 316h267q26 0 34.5 10.5T465 368v6q0 31-8 40.5t-35 9.5H142q-64 0-100-9l7 55h378q69 0 95.5-25.5T549 348V100zM171 660h76l112-140h-52z" unicode="à"/><glyph glyph-name="acircumflex" d="M465 270H160q-26 0-34.5-10.5T117 218V98q0-32 8-42t35-10h262q26 0 34.5 10.5T465 98v172zm84-170q0-64 9-100h-81l-8 30Q458 9 448.5 4.5T405 0H155Q86 0 59.5 25.5T33 122v72q0 69 26.5 95.5T155 316h267q26 0 34.5 10.5T465 368v6q0 31-8 40.5t-35 9.5H142q-64 0-100-9l7 55h378q69 0 95.5-25.5T549 348V100zM330 660l113-140h-64l-82 103-82-103h-64l112 140h67z" unicode="â"/><glyph glyph-name="adieresis" d="M465 270H160q-26 0-34.5-10.5T117 218V98q0-32 8-42t35-10h262q26 0 34.5 10.5T465 98v172zm84-170q0-64 9-100h-81l-8 30Q458 9 448.5 4.5T405 0H155Q86 0 59.5 25.5T33 122v72q0 69 26.5 95.5T155 316h267q26 0 34.5 10.5T465 368v6q0 31-8 40.5t-35 9.5H142q-64 0-100-9l7 55h378q69 0 95.5-25.5T549 348V100zM338 622h64v-92h-64v92zm-146 0h64v-92h-64v92z" unicode="ä"/><glyph glyph-name="atilde" d="M465 270H160q-26 0-34.5-10.5T117 218V98q0-32 8-42t35-10h262q26 0 34.5 10.5T465 98v172zm84-170q0-64 9-100h-81l-8 30Q458 9 448.5 4.5T405 0H155Q86 0 59.5 25.5T33 122v72q0 69 26.5 95.5T155 316h267q26 0 34.5 10.5T465 368v6q0 31-8 40.5t-35 9.5H142q-64 0-100-9l7 55h378q69 0 95.5-25.5T549 348V100zM141 532l1 9q4 39 30 64t56 25q22 0 40-7t35.5-15.5 35-16T369 584q22 0 31 13t15 37h38q-4-41-25-68.5T371 538q-16 0-36 6.5T291 561t-39 15.5-26 5.5q-21 0-29.5-11T178 532h-37z" unicode="ã"/><glyph glyph-name="aring" d="M297 730q43 0 73.5-30.5T401 626t-30.5-73.5T297 522t-73.5 30.5T193 626t30.5 73.5T297 730zm0-46q-25 0-41.5-16.5T239 626t16.5-41.5T297 568t41.5 16.5T355 626t-16.5 41.5T297 684zm168-414H160q-26 0-34.5-10.5T117 218V98q0-32 8-42t35-10h262q26 0 34.5 10.5T465 98v172zm84-170q0-64 9-100h-81l-8 30Q458 9 448.5 4.5T405 0H155Q86 0 59.5 25.5T33 122v72q0 69 26.5 95.5T155 316h267q26 0 34.5 10.5T465 368v6q0 31-8 40.5t-35 9.5H142q-64 0-100-9l7 55h378q69 0 95.5-25.5T549 348V100z" unicode="å"/><glyph glyph-name="ccedilla" horiz-adv-x="537" unicode="ç" d="M128 98q0-32 8-42t35-10h253q64 0 100 9l-7-55H166Q97 0 70.5 25.5T44 122v226q0 69 26.5 95.5T166 470h344l4-55q-36 9-100 9H171q-26 0-34.5-10.5T128 372V98zM331 0l-47-59q30 6 37 6 27 0 52.5-17.5T399-123q0-39-30.5-62T294-208q-35 0-52 4t-46 16l16 30q16-6 32-11t31-5q30 0 49 13t19 34q0 40-52 40-10 0-17-1t-27-7l-15 13 61 82h38z"/><glyph glyph-name="eacute" d="M117 206V98q0-32 8-42t35-10h300q64 0 100 9L550 0H155Q86 0 59.5 25.5T33 122v226q0 69 26.5 95.5T155 470h283q69 0 95.5-25.5T560 348V206H117zm359 46v120q0 32-8 42t-35 10H160q-26 0-34.5-10.5T117 372V252h359zM285 520h-50l110 140h78z" unicode="é"/><glyph glyph-name="egrave" d="M117 206V98q0-32 8-42t35-10h300q64 0 100 9L550 0H155Q86 0 59.5 25.5T33 122v226q0 69 26.5 95.5T155 470h283q69 0 95.5-25.5T560 348V206H117zm359 46v120q0 32-8 42t-35 10H160q-26 0-34.5-10.5T117 372V252h359zM171 660h76l112-140h-52z" unicode="è"/><glyph glyph-name="ecircumflex" d="M117 206V98q0-32 8-42t35-10h300q64 0 100 9L550 0H155Q86 0 59.5 25.5T33 122v226q0 69 26.5 95.5T155 470h283q69 0 95.5-25.5T560 348V206H117zm359 46v120q0 32-8 42t-35 10H160q-26 0-34.5-10.5T117 372V252h359zM330 660l113-140h-64l-82 103-82-103h-64l112 140h67z" unicode="ê"/><glyph glyph-name="edieresis" d="M117 206V98q0-32 8-42t35-10h300q64 0 100 9L550 0H155Q86 0 59.5 25.5T33 122v226q0 69 26.5 95.5T155 470h283q69 0 95.5-25.5T560 348V206H117zm359 46v120q0 32-8 42t-35 10H160q-26 0-34.5-10.5T117 372V252h359zM338 622h64v-92h-64v92zm-146 0h64v-92h-64v92z" unicode="ë"/><glyph glyph-name="iacute" horiz-adv-x="204" unicode="í" d="M144 108q0-33 1.5-51.5T153 0H51q3 22 6 53t3 55v262q0 64-9 100h93V108zM90 520H40l110 140h78z"/><glyph glyph-name="igrave" horiz-adv-x="204" unicode="ì" d="M144 108q0-33 1.5-51.5T153 0H51q3 22 6 53t3 55v262q0 64-9 100h93V108zM-24 660h76l112-140h-52z"/><glyph glyph-name="icircumflex" horiz-adv-x="204" unicode="î" d="M144 108q0-33 1.5-51.5T153 0H51q3 22 6 53t3 55v262q0 64-9 100h93V108zm-9 552l113-140h-64l-82 103-82-103h-64L68 660h67z"/><glyph glyph-name="idieresis" horiz-adv-x="204" unicode="ï" d="M144 108q0-33 1.5-51.5T153 0H51q3 22 6 53t3 55v262q0 64-9 100h93V108zm-1 514h64v-92h-64v92zm-146 0h64v-92H-3v92z"/><glyph glyph-name="ntilde" horiz-adv-x="611" unicode="ñ" d="M44 370q0 64-9 100h97v-34q16 19 27.5 26.5T186 470h259q69 0 95.5-25.5T567 348V100q0-64 9-100H474q9 36 9 100v272q0 32-8 42t-35 10H171q-26 0-34.5-10.5T128 372V100q0-64 9-100H35q9 36 9 100v270zm106 162l1 9q4 39 30 64t56 25q22 0 40-7t35.5-15.5 35-16T378 584q22 0 31 13t15 37h38q-4-41-25-68.5T380 538q-16 0-36 6.5T300 561t-39 15.5-26 5.5q-21 0-29.5-11T187 532h-37z"/><glyph glyph-name="oacute" d="M160 424q-26 0-34.5-10.5T117 372V98q0-32 8-42t35-10h273q26 0 34.5 10.5T476 98v274q0 32-8 42t-35 10H160zm400-302q0-69-26.5-95.5T438 0H155Q86 0 59.5 25.5T33 122v226q0 69 26.5 95.5T155 470h283q69 0 95.5-25.5T560 348V122zM285 520h-50l110 140h78z" unicode="ó"/><glyph glyph-name="ograve" d="M160 424q-26 0-34.5-10.5T117 372V98q0-32 8-42t35-10h273q26 0 34.5 10.5T476 98v274q0 32-8 42t-35 10H160zm400-302q0-69-26.5-95.5T438 0H155Q86 0 59.5 25.5T33 122v226q0 69 26.5 95.5T155 470h283q69 0 95.5-25.5T560 348V122zM171 660h76l112-140h-52z" unicode="ò"/><glyph glyph-name="ocircumflex" d="M160 424q-26 0-34.5-10.5T117 372V98q0-32 8-42t35-10h273q26 0 34.5 10.5T476 98v274q0 32-8 42t-35 10H160zm400-302q0-69-26.5-95.5T438 0H155Q86 0 59.5 25.5T33 122v226q0 69 26.5 95.5T155 470h283q69 0 95.5-25.5T560 348V122zM330 660l113-140h-64l-82 103-82-103h-64l112 140h67z" unicode="ô"/><glyph glyph-name="odieresis" d="M160 424q-26 0-34.5-10.5T117 372V98q0-32 8-42t35-10h273q26 0 34.5 10.5T476 98v274q0 32-8 42t-35 10H160zm400-302q0-69-26.5-95.5T438 0H155Q86 0 59.5 25.5T33 122v226q0 69 26.5 95.5T155 470h283q69 0 95.5-25.5T560 348V122zM338 622h64v-92h-64v92zm-146 0h64v-92h-64v92z" unicode="ö"/><glyph glyph-name="otilde" d="M160 424q-26 0-34.5-10.5T117 372V98q0-32 8-42t35-10h273q26 0 34.5 10.5T476 98v274q0 32-8 42t-35 10H160zm400-302q0-69-26.5-95.5T438 0H155Q86 0 59.5 25.5T33 122v226q0 69 26.5 95.5T155 470h283q69 0 95.5-25.5T560 348V122zM141 532l1 9q4 39 30 64t56 25q22 0 40-7t35.5-15.5 35-16T369 584q22 0 31 13t15 37h38q-4-41-25-68.5T371 538q-16 0-36 6.5T291 561t-39 15.5-26 5.5q-21 0-29.5-11T178 532h-37z" unicode="õ"/><glyph glyph-name="uacute" horiz-adv-x="611" unicode="ú" d="M44 370q0 64-9 100h93V98q0-32 8-42t35-10h269q26 0 34.5 10.5T483 98v272q0 64-9 100h93V100q0-64 9-100h-84l-5 34q-9-19-20.5-26.5T433 0H166Q97 0 70.5 25.5T44 122v248zm250 150h-50l110 140h78z"/><glyph glyph-name="ugrave" horiz-adv-x="611" unicode="ù" d="M44 370q0 64-9 100h93V98q0-32 8-42t35-10h269q26 0 34.5 10.5T483 98v272q0 64-9 100h93V100q0-64 9-100h-84l-5 34q-9-19-20.5-26.5T433 0H166Q97 0 70.5 25.5T44 122v248zm136 290h76l112-140h-52z"/><glyph glyph-name="ucircumflex" horiz-adv-x="611" unicode="û" d="M44 370q0 64-9 100h93V98q0-32 8-42t35-10h269q26 0 34.5 10.5T483 98v272q0 64-9 100h93V100q0-64 9-100h-84l-5 34q-9-19-20.5-26.5T433 0H166Q97 0 70.5 25.5T44 122v248zm295 290l113-140h-64l-82 103-82-103h-64l112 140h67z"/><glyph glyph-name="udieresis" horiz-adv-x="611" unicode="ü" d="M44 370q0 64-9 100h93V98q0-32 8-42t35-10h269q26 0 34.5 10.5T483 98v272q0 64-9 100h93V100q0-64 9-100h-84l-5 34q-9-19-20.5-26.5T433 0H166Q97 0 70.5 25.5T44 122v248zm303 252h64v-92h-64v92zm-146 0h64v-92h-64v92z"/><glyph glyph-name="degree" horiz-adv-x="400" unicode="°" d="M343 497q0-60-41.5-101.5T200 354 98.5 395.5 57 497t41.5 101.5T200 640t101.5-41.5T343 497zM200 396q41 0 68 29t27 72q0 42-26.5 71.5T200 598q-41 0-68-29t-27-72q0-42 26.5-71.5T200 396z"/><glyph glyph-name="cent" horiz-adv-x="463" unicode="¢" d="M420 526l4-53q-30 5-66 8t-59 3H198q-26 0-34.5-10.5T155 432V217q0-32 8-42t35-10h158q40 0 68 4l-4-46H281V19h-46v104h-95q-38 0-55.5 15.5T67 196v257q0 42 17.5 57.5T140 526h95v90h46v-90h139z"/><glyph glyph-name="sterling" horiz-adv-x="667" unicode="£" d="M523 463v73q0 32-8 42t-35 10H193q-26 0-34.5-10.5T150 536v-71q0-29 25-54l56-59h315v-56H275q15-18 30.5-48t15.5-58q0-58-43.5-95T197 54l283-2q26 0 34.5 10.5T523 104v93h102v-75q0-69-26.5-95.5T503 0H39v49q106 10 143 49.5t37 76.5q0 30-19 59t-47 62H14v56h90q-56 38-56 86v80q0 69 26.5 95.5T170 640h333q69 0 95.5-25.5T625 518v-55H523z"/><glyph glyph-name="section" horiz-adv-x="611" unicode="§" d="M65-178l-16 70q36-13 66.5-18.5T174-132h274q26 0 34.5 10.5T491-80V8q0 32-8 42t-35 10H158q-69 0-95.5 25.5T36 182v91q0 42 9.5 65.5T94 365q-38 8-48 25t-10 72v56q0 69 26.5 95.5T158 640h390l13-70q-36 13-66.5 18.5T436 594H163q-26 0-34.5-10.5T120 542v-72q0-32 8-42t35-10h290q69 0 95.5-25.5T575 296v-67q0-61-4.5-86.5T518 111q39-8 48-27.5T575 1v-57q0-69-26.5-95.5T453-178H65zm426 464q0 32-8 42t-35 10H163q-26 0-34.5-10.5T120 286v-94q0-32 8-42t35-10h285q26 0 34.5 10.5T491 192v94z"/><glyph glyph-name="paragraph" horiz-adv-x="600" unicode="¶" d="M243 301q-95 0-154.5 46.5T29 467q0 89 61.5 131T262 640h260v-818h-84v762H327v-762h-84v479z"/><glyph glyph-name="germandbls" horiz-adv-x="611" unicode="ß" d="M-4 470h77v87q0 48 23 65.5t77 17.5h250q55 0 77.5-17t22.5-66v-50q0-47-8-62t-43-21q64-2 84-18.5t20-94.5V83q0-48-23-65.5T476 0H238v60q13-4 50.5-9t74.5-5h86q26 0 34.5 10.5T492 98v229q0 33-7 42.5t-34 9.5H234v56h162q26 0 34.5 10.5T439 487v55q0 32-8 42t-35 10H200q-26 0-34.5-10.5T157 542V0H64q3 22 6 53t3 55v316H-4v46z"/><glyph glyph-name="registered" horiz-adv-x="800" unicode="®" d="M408 347q46 0 63 13.5t17 38.5q0 31-22.5 41.5T408 451h-73V347h73zm-73-210h-60v366h139q134 0 134-105 0-48-25.5-71.5T451 298l103-161h-65l-95 158h-59V137zm318 183q0 113-72.5 188.5T400 584t-180.5-75.5T147 320t72.5-188.5T400 56t180.5 75.5T653 320zm72 0q0-138-96-229T400 0Q266 0 170.5 90.5T75 320q0 138 96 229t229 91q134 0 229.5-90.5T725 320z"/><glyph glyph-name="copyright" horiz-adv-x="800" unicode="©" d="M568 259q-9-63-52.5-97.5T410 127q-85 0-135 54t-50 140 50 140 135 54q62 0 105.5-34.5T568 383h-61q-7 33-33 52.5T410 455q-55 0-85-36.5T295 321q0-62 29.5-98t85.5-36q38 0 64 19t33 53h61zm-421 61q0-113 72.5-188.5T400 56t180.5 75.5T653 320t-72.5 188.5T400 584t-180.5-75.5T147 320zm578 0q0-138-96-229T400 0Q266 0 170.5 90.5T75 320q0 138 96 229t229 91q134 0 229.5-90.5T725 320z"/><glyph glyph-name="acute" horiz-adv-x="204" unicode="´" d="M90 520H40l110 140h78z"/><glyph glyph-name="dieresis" horiz-adv-x="204" unicode="¨" d="M143 622h64v-92h-64v92zm-146 0h64v-92H-3v92z"/><glyph glyph-name="AE" horiz-adv-x="926" unicode="Æ" d="M523 346h235q53 0 76 1.5t55 5.5v-66q-7 1-43 4t-88 3H523V52h263q53 0 78 1.5t47 5.5l-6-59H412q9 36 9 100v100H160l-51-78Q80 76 71 55T59 2L-41 0q20 21 37 42t47 68l324 500-53 30h591l6-59q-7 1-39 4t-86 3H523V346zm-102-94v306q0 17-1.5 23.5T413 588q-3 0-6.5-4.5T397 570L192 252h229z"/><glyph glyph-name="Oslash" horiz-adv-x="667" unicode="Ø" d="M30-103h-62L75 31Q59 45 50.5 69T42 122v396q0 59 30 90.5T175 640h317q35 0 62-8l82 102h63L597 606q14-15 21-38t7-50V122q0-59-30-90.5T492 0H175q-35 0-57 7zm482 682q-6 9-32 9H187q-26 0-34.5-10.5T144 536V118zM159 58q8-6 28-6h293q26 0 34.5 10.5T523 104v409z"/><glyph glyph-name="plusminus" horiz-adv-x="600" unicode="±" d="M65 76h470V0H65v76zm197 394h76V328h197v-76H338V109h-76v143H65v76h197v142z"/><glyph glyph-name="yen" horiz-adv-x="667" unicode="¥" d="M592 216H385V100q0-64 9-100H274q9 36 9 100v116H82v56h196l-47 68H82v56h110l-50 72q-5 7-59 84t-63 88h145q7-30 14.5-46.5T214 538l148-214 177 269q6 10 12 25t8 22h88q-24-24-40-45t-46-65l-89-134h120v-56H434l-45-68h203v-56z"/><glyph glyph-name="uni00B5" horiz-adv-x="611" unicode="µ" d="M567 108q0-33 1.5-51.5T576 0h-84l-5 34q-9-19-20.5-26.5T433 0H166q-23 0-38 3v-81q0-64 9-100H35q9 36 9 100v440q0 33-1.5 51.5T35 470h93V98q0-32 8-42t35-10h269q26 0 34.5 10.5T483 98v264q0 33-1.5 51.5T474 470h93V108z"/><glyph glyph-name="ordfeminine" horiz-adv-x="356" unicode="ª" d="M292 518H95q-16 0-22-6t-6-25v-64q0-19 5-25t23-6h169q16 0 22 6.5t6 24.5v95zm56-95l2-65h-50l-5 18q-6-11-14-16-6-2-28-2H90q-44 0-61.5 15.5T11 431v47q0 43 17.5 58.5T90 552h174q17 0 22.5 5.5T292 579q0 19-8 23t-20 4H99q-25 0-45-1.5T17 600l5 40h247q44 0 61.5-15.5T348 567V423z"/><glyph glyph-name="ordmasculine" horiz-adv-x="356" unicode="º" d="M293 575q0 19-5 25t-23 6H91q-16 0-22-6t-6-25V423q0-19 5-25t23-6h174q16 0 22 6.5t6 24.5v152zm56-144q0-42-17.5-57.5T270 358H86q-44 0-61.5 15.5T7 431v136q0 42 17.5 57.5T86 640h184q44 0 61.5-15.5T349 567V431z"/><glyph glyph-name="ae" horiz-adv-x="1000" unicode="æ" d="M451 270H160q-26 0-34.5-10.5T117 218V98q0-32 8-42t35-10h248q26 0 34.5 10.5T451 98v172zM964 0H524q-32 0-52 28-20-28-52-28H155Q86 0 59.5 25.5T33 122v72q0 69 26.5 95.5T155 316h253q26 0 34.5 10.5T451 368v6q0 31-8 40.5t-35 9.5H142q-64 0-100-9l7 55h801q69 0 95.5-25.5T972 348V206H535V98q0-32 8-42t35-10h296q64 0 100 9zm-76 252v120q0 32-8 42t-35 10H578q-26 0-34.5-10.5T535 372V252h353z"/><glyph glyph-name="oslash" d="M47-103h-62L81 12Q33 35 33 122v226q0 69 26.5 95.5T155 470h283l24-1 83 100h63l-94-112q46-22 46-109V122q0-69-26.5-95.5T438 0H155l-21 1zM171 46h262q26 0 34.5 10.5T476 98v274q0 25-5 34zm254 378H160q-26 0-34.5-10.5T117 372V98q0-28 6-36z" unicode="ø"/><glyph glyph-name="questiondown" d="M296 470h102v-86H296v86zM155-170q-69 0-95.5 25.5T33-48V63q0 52 20.5 72.5T113 156h140q26 0 34.5 10.5T296 208v137h102V167q0-31-17-44t-60-13H178q-26 0-34.5-10.5T135 58V-72q0-32 8-42t35-10h281q37 0 66 3t59 8l-5-57H155z" unicode="¿"/><glyph glyph-name="exclamdown" horiz-adv-x="222" unicode="¡" d="M60-170v347q0 38 2.5 72.5T72 346h78q5-44 8.5-84t3.5-85v-347H60zm0 640h102v-86H60v86z"/><glyph glyph-name="logicalnot" horiz-adv-x="600" unicode="¬" d="M459 294H65v76h470V100h-76v194z"/><glyph glyph-name="guillemotleft" horiz-adv-x="444" unicode="«" d="M222 55h-63L62 235l97 180h63l-97-180zm161 0h-63l-97 180 97 180h63l-97-180z"/><glyph glyph-name="guillemotright" horiz-adv-x="444" unicode="»" d="M222 415h63l97-180-97-180h-63l97 180zm-161 0h63l97-180-97-180H61l97 180z"/><glyph glyph-name="uni00A0" horiz-adv-x="250"/><glyph glyph-name="Agrave" horiz-adv-x="685" unicode="À" d="M316 552L170 248h295zM568 0q-2 25-9.5 45.5T533 104l-44 92H147L95 88Q77 50 72 33.5T67 0h-84Q8 29 28 69l255 531q-7 13-13 20t-20 20h129l257-525q20-42 35-69t31-46H568zM211 807h76l112-140h-52z"/><glyph glyph-name="Atilde" horiz-adv-x="685" unicode="Ã" d="M316 552L170 248h295zM568 0q-2 25-9.5 45.5T533 104l-44 92H147L95 88Q77 50 72 33.5T67 0h-84Q8 29 28 69l255 531q-7 13-13 20t-20 20h129l257-525q20-42 35-69t31-46H568zM181 679l1 9q4 39 30 64t56 25q22 0 40-7t35.5-15.5 35-16T409 731q22 0 31 13t15 37h38q-4-41-25-68.5T411 685q-16 0-36 6.5T331 708t-39 15.5-26 5.5q-21 0-29.5-11T218 679h-37z"/><glyph glyph-name="Otilde" horiz-adv-x="667" unicode="Õ" d="M523 536q0 32-8 42t-35 10H187q-26 0-34.5-10.5T144 536V104q0-32 8-42t35-10h293q26 0 34.5 10.5T523 104v432zm-31 104q73 0 103-31.5t30-90.5V122q0-59-30-90.5T492 0H175Q102 0 72 31.5T42 122v396q0 59 30 90.5T175 640h317zm-314 39l1 9q4 39 30 64t56 25q22 0 40-7t35.5-15.5 35-16T406 731q22 0 31 13t15 37h38q-4-41-25-68.5T408 685q-16 0-36 6.5T328 708t-39 15.5-26 5.5q-21 0-29.5-11T215 679h-37z"/><glyph glyph-name="divide" horiz-adv-x="600" unicode="÷" d="M367 427q0-28-19.5-47.5T300 360t-47.5 19.5T233 427t19.5 47.5T300 494t47.5-19.5T367 427zm0-384q0-28-19.5-47.5T300-24 252.5-4.5 233 43t19.5 47.5T300 110t47.5-19.5T367 43zM65 197v76h470v-76H65z"/><glyph glyph-name="periodcentered" horiz-adv-x="333" unicode="·" d="M166 289q23 0 38.5-15.5T220 235t-15.5-38.5T166 181t-38.5 15.5T112 235t15.5 38.5T166 289z"/><glyph glyph-name="Acircumflex" horiz-adv-x="685" unicode="Â" d="M316 552L170 248h295zM568 0q-2 25-9.5 45.5T533 104l-44 92H147L95 88Q77 50 72 33.5T67 0h-84Q8 29 28 69l255 531q-7 13-13 20t-20 20h129l257-525q20-42 35-69t31-46H568zM370 807l113-140h-64l-82 103-82-103h-64l112 140h67z"/><glyph glyph-name="Ecircumflex" horiz-adv-x="556" unicode="Ê" d="M536 640l5-59q-7 1-39 4t-86 3H155V346h237q53 0 76 1.5t55 5.5v-66q-7 1-43 4t-88 3H155V52h261q53 0 78 1.5t47 5.5l-5-59H44q9 36 9 100v440q0 64-9 100h492zM328 807l113-140h-64l-82 103-82-103h-64l112 140h67z"/><glyph glyph-name="Aacute" horiz-adv-x="685" unicode="Á" d="M316 552L170 248h295zM568 0q-2 25-9.5 45.5T533 104l-44 92H147L95 88Q77 50 72 33.5T67 0h-84Q8 29 28 69l255 531q-7 13-13 20t-20 20h129l257-525q20-42 35-69t31-46H568zM325 667h-50l110 140h78z"/><glyph glyph-name="Edieresis" horiz-adv-x="556" unicode="Ë" d="M536 640l5-59q-7 1-39 4t-86 3H155V346h237q53 0 76 1.5t55 5.5v-66q-7 1-43 4t-88 3H155V52h261q53 0 78 1.5t47 5.5l-5-59H44q9 36 9 100v440q0 64-9 100h492zM336 769h64v-92h-64v92zm-146 0h64v-92h-64v92z"/><glyph glyph-name="Egrave" horiz-adv-x="556" unicode="È" d="M536 640l5-59q-7 1-39 4t-86 3H155V346h237q53 0 76 1.5t55 5.5v-66q-7 1-43 4t-88 3H155V52h261q53 0 78 1.5t47 5.5l-5-59H44q9 36 9 100v440q0 64-9 100h492zM169 807h76l112-140h-52z"/><glyph glyph-name="Iacute" horiz-adv-x="241" unicode="Í" d="M172 100q0-64 9-100H61q9 36 9 100v440q0 64-9 100h120q-9-36-9-100V100zm-63 567H59l110 140h78z"/><glyph glyph-name="Icircumflex" horiz-adv-x="241" unicode="Î" d="M172 100q0-64 9-100H61q9 36 9 100v440q0 64-9 100h120q-9-36-9-100V100zm-18 707l113-140h-64l-82 103-82-103h-64L87 807h67z"/><glyph glyph-name="Idieresis" horiz-adv-x="241" unicode="Ï" d="M172 100q0-64 9-100H61q9 36 9 100v440q0 64-9 100h120q-9-36-9-100V100zm-10 669h64v-92h-64v92zm-146 0h64v-92H16v92z"/><glyph glyph-name="Igrave" horiz-adv-x="241" unicode="Ì" d="M172 100q0-64 9-100H61q9 36 9 100v440q0 64-9 100h120q-9-36-9-100V100zM-5 807h76l112-140h-52z"/><glyph glyph-name="Oacute" horiz-adv-x="667" unicode="Ó" d="M523 536q0 32-8 42t-35 10H187q-26 0-34.5-10.5T144 536V104q0-32 8-42t35-10h293q26 0 34.5 10.5T523 104v432zm-31 104q73 0 103-31.5t30-90.5V122q0-59-30-90.5T492 0H175Q102 0 72 31.5T42 122v396q0 59 30 90.5T175 640h317zm-170 27h-50l110 140h78z"/><glyph glyph-name="Ocircumflex" horiz-adv-x="667" unicode="Ô" d="M523 536q0 32-8 42t-35 10H187q-26 0-34.5-10.5T144 536V104q0-32 8-42t35-10h293q26 0 34.5 10.5T523 104v432zm-31 104q73 0 103-31.5t30-90.5V122q0-59-30-90.5T492 0H175Q102 0 72 31.5T42 122v396q0 59 30 90.5T175 640h317zM367 807l113-140h-64l-82 103-82-103h-64l112 140h67z"/><glyph glyph-name="Ograve" horiz-adv-x="667" unicode="Ò" d="M523 536q0 32-8 42t-35 10H187q-26 0-34.5-10.5T144 536V104q0-32 8-42t35-10h293q26 0 34.5 10.5T523 104v432zm-31 104q73 0 103-31.5t30-90.5V122q0-59-30-90.5T492 0H175Q102 0 72 31.5T42 122v396q0 59 30 90.5T175 640h317zM208 807h76l112-140h-52z"/><glyph glyph-name="Uacute" horiz-adv-x="667" unicode="Ú" d="M518 52q27 0 35.5 10.5T562 104v428q0 33-1.5 51.5T553 640h72q-6-31-8.5-60.5T614 519V123q0-72-23-97.5T504 0H184Q109 0 81 26t-28 97v417q0 64-9 100h120q-9-36-9-100V104q0-33 7-42.5t32-9.5h324zM322 667h-50l110 140h78z"/><glyph glyph-name="Ucircumflex" horiz-adv-x="667" unicode="Û" d="M518 52q27 0 35.5 10.5T562 104v428q0 33-1.5 51.5T553 640h72q-6-31-8.5-60.5T614 519V123q0-72-23-97.5T504 0H184Q109 0 81 26t-28 97v417q0 64-9 100h120q-9-36-9-100V104q0-33 7-42.5t32-9.5h324zM367 807l113-140h-64l-82 103-82-103h-64l112 140h67z"/><glyph glyph-name="Ugrave" horiz-adv-x="667" unicode="Ù" d="M518 52q27 0 35.5 10.5T562 104v428q0 33-1.5 51.5T553 640h72q-6-31-8.5-60.5T614 519V123q0-72-23-97.5T504 0H184Q109 0 81 26t-28 97v417q0 64-9 100h120q-9-36-9-100V104q0-33 7-42.5t32-9.5h324zM208 807h76l112-140h-52z"/><glyph glyph-name="circumflex" horiz-adv-x="204" unicode="ˆ" d="M135 660l113-140h-64l-82 103-82-103h-64L68 660h67z"/><glyph glyph-name="tilde" horiz-adv-x="204" unicode="˜" d="M-54 532l1 9q4 39 30 64t56 25q22 0 40-7t35.5-15.5 35-16T174 584q22 0 31 13t15 37h38q-4-41-25-68.5T176 538q-16 0-36 6.5T96 561t-39 15.5-26 5.5q-21 0-29.5-11T-17 532h-37z"/><glyph glyph-name="macron" horiz-adv-x="204" unicode="¯" d="M249 558H-45v46h294v-46z"/><glyph glyph-name="cedilla" horiz-adv-x="204" unicode="¸" d="M135 0L88-59q30 6 37 6 27 0 52.5-17.5T203-123q0-39-30.5-62T98-208q-35 0-52 4T0-188l16 30q16-6 32-11t31-5q30 0 49 13t19 34q0 40-52 40-10 0-17-1t-27-7L36-82 97 0h38z"/><glyph glyph-name="Aring.ref1" d="M337 877q43 0 73.5-30.5T441 773t-30.5-73.5T337 669t-73.5 30.5T233 773t30.5 73.5T337 877zm0-46q-25 0-41.5-16.5T279 773t16.5-41.5T337 715t41.5 16.5T395 773t-16.5 41.5T337 831z" horiz-adv-x="1000"/><glyph glyph-name="aring.ref1" d="M297 730q43 0 73.5-30.5T401 626t-30.5-73.5T297 522t-73.5 30.5T193 626t30.5 73.5T297 730zm0-46q-25 0-41.5-16.5T239 626t16.5-41.5T297 568t41.5 16.5T355 626t-16.5 41.5T297 684z" horiz-adv-x="1000"/><glyph glyph-name="iacute.ref1" d="M144 108q0-33 1.5-51.5T153 0H51q3 22 6 53t3 55v262q0 64-9 100h93V108z" horiz-adv-x="1000"/><glyph glyph-name="igrave.ref1" d="M144 108q0-33 1.5-51.5T153 0H51q3 22 6 53t3 55v262q0 64-9 100h93V108z" horiz-adv-x="1000"/><glyph glyph-name="icircumflex.ref1" d="M144 108q0-33 1.5-51.5T153 0H51q3 22 6 53t3 55v262q0 64-9 100h93V108z" horiz-adv-x="1000"/><glyph glyph-name="idieresis.ref1" d="M144 108q0-33 1.5-51.5T153 0H51q3 22 6 53t3 55v262q0 64-9 100h93V108z" horiz-adv-x="1000"/></font>
</defs>
</svg>
