<?xml version="1.0" standalone="no"?>
<!DOCTYPE svg PUBLIC "-//W3C//DTD SVG 20010904//EN"
 "http://www.w3.org/TR/2001/REC-SVG-20010904/DTD/svg10.dtd">
<svg version="1.0" xmlns="http://www.w3.org/2000/svg"
 width="639.000000pt" height="639.000000pt" viewBox="0 0 639.000000 639.000000"
 preserveAspectRatio="xMidYMid meet">
<metadata>
Created by potrace 1.11, written by Peter Selinger 2001-2013
</metadata>
<g transform="translate(0.000000,639.000000) scale(0.100000,-0.100000)"
fill="#000000" stroke="none">
<path d="M439 5322 c-12 -2 -14 -172 -14 -1273 0 -948 3 -1272 12 -1277 6 -4
247 -7 535 -6 l523 1 0 1276 c0 847 -3 1277 -10 1278 -23 3 -1032 4 -1046 1z"/>
<path d="M2566 5320 c-2 -3 -2 -574 -2 -1270 1 -696 -2 -1269 -5 -1275 -5 -6
-193 -10 -533 -9 -289 1 -527 -2 -527 -5 -5 -22 -3 -824 1 -832 4 -5 929 -8
2235 -6 l2230 2 0 1698 c0 1503 -2 1697 -15 1698 -68 4 -3382 3 -3384 -1z
m1746 -852 c84 1 158 2 163 2 6 1 58 0 116 -1 58 -1 111 1 117 5 7 4 12 4 12
-1 0 -4 41 -7 90 -6 l90 1 -2 -851 -3 -850 -638 -1 -637 -1 -1 790 c0 435 0
798 0 808 0 9 1 37 1 61 l2 43 259 0 c142 0 262 3 266 7 4 4 9 4 10 -1 2 -4
72 -7 155 -5z"/>
</g>
</svg>
